<?xml version="1.0" encoding="UTF-8"?>
<svg version="1.1" viewBox="0 0 2000 2000" width="500" height="500" xmlns="http://www.w3.org/2000/svg">
<path transform="translate(787,778)" d="m0 0h315l11 2 9 6 6 7 3 9v56l-4 12-7 7-8 3-6 1h-250v68h247l10 2 11 8 5 10v63l-4 9-8 8-6 2-7 1h-248v69h259l8 3 8 7 4 6 1 3 1 18v35l-1 12-7 11-6 5-8 2h-342l-8-3-9-8-5-11-1-3v-397l6-12 7-6 8-4z" fill="#E96525"/>
<path transform="translate(1303,773)" d="m0 0h104l3 2-1 10-28 82-15 43-21 61-10 29-24 72-14 43-12 35-12 37-13 38-3 3-3 1h-99l-3-2 1-9 11-30 7-20 9-26 8-23 12-36 11-32 28-84 14-43 16-49 16-51 13-42 4-8z" fill="#030201"/>
<path transform="translate(607,923)" d="m0 0h70l12 3 8 7 3 7 1 152v107l-2 12-9 10-10 3-9 1h-57l-9-2-6-4-8-11-1-5v-264l3-7 4-5z" fill="#050303"/>
<path transform="translate(647,780)" d="m0 0 23 1 11 3 9 6 7 10 2 7v51l-2 10-8 11-8 6-6 2-12 1h-33l-18-1-7-3-8-7-6-10-1-4v-54l4-11 7-9 8-5 12-3z" fill="#060302"/>
</svg>
